<?xml version="1.0" encoding="UTF-8" standalone="no"?>
<!DOCTYPE svg PUBLIC "-//W3C//DTD SVG 1.1//EN" "http://www.w3.org/Graphics/SVG/1.1/DTD/svg11.dtd">
<svg width="100%" height="100%" viewBox="0 0 100 25" version="1.1" xmlns="http://www.w3.org/2000/svg" xmlns:xlink="http://www.w3.org/1999/xlink" xml:space="preserve" xmlns:serif="http://www.serif.com/" style="fill-rule:evenodd;clip-rule:evenodd;stroke-linejoin:round;stroke-miterlimit:2;">
    <g transform="matrix(2.75047,0,0,2.75047,-133.344,-4.48312)">
        <path d="M48.481,1.88L51.135,1.88L51.135,8.354L55.277,8.354L55.277,10.47L48.481,10.47L48.481,1.88ZM55.945,6.18C55.945,4.778 56.336,3.686 57.117,2.905C57.899,2.124 58.986,1.733 60.381,1.733C61.811,1.733 62.912,2.117 63.686,2.885C64.459,3.652 64.846,4.727 64.846,6.11C64.846,7.114 64.677,7.937 64.339,8.58C64.001,9.222 63.513,9.722 62.874,10.08C62.235,10.437 61.44,10.616 60.486,10.616C59.518,10.616 58.716,10.462 58.081,10.153C57.446,9.845 56.932,9.356 56.537,8.688C56.143,8.02 55.945,7.184 55.945,6.18ZM58.6,6.192C58.6,7.059 58.761,7.682 59.083,8.061C59.405,8.44 59.844,8.63 60.399,8.63C60.969,8.63 61.41,8.444 61.723,8.073C62.035,7.702 62.191,7.036 62.191,6.075C62.191,5.266 62.028,4.676 61.702,4.303C61.376,3.93 60.934,3.743 60.375,3.743C59.84,3.743 59.41,3.932 59.086,4.311C58.762,4.69 58.6,5.317 58.6,6.192ZM70.594,7.358L70.594,5.571L74.695,5.571L74.695,9.233C73.91,9.768 73.216,10.133 72.612,10.326C72.009,10.519 71.293,10.616 70.465,10.616C69.445,10.616 68.614,10.442 67.972,10.095C67.329,9.747 66.831,9.229 66.478,8.542C66.124,7.854 65.947,7.065 65.947,6.175C65.947,5.237 66.141,4.422 66.527,3.728C66.914,3.035 67.481,2.509 68.227,2.149C68.809,1.872 69.592,1.733 70.576,1.733C71.525,1.733 72.235,1.819 72.706,1.991C73.177,2.163 73.567,2.43 73.878,2.791C74.189,3.152 74.422,3.61 74.578,4.165L72.018,4.622C71.912,4.298 71.733,4.05 71.482,3.878C71.23,3.706 70.908,3.62 70.518,3.62C69.936,3.62 69.472,3.822 69.126,4.226C68.78,4.631 68.607,5.27 68.607,6.145C68.607,7.075 68.782,7.739 69.132,8.138C69.482,8.536 69.969,8.735 70.594,8.735C70.891,8.735 71.174,8.692 71.443,8.606C71.713,8.52 72.022,8.374 72.369,8.167L72.369,7.358L70.594,7.358ZM75.938,6.18C75.938,4.778 76.328,3.686 77.109,2.905C77.891,2.124 78.979,1.733 80.373,1.733C81.803,1.733 82.904,2.117 83.678,2.885C84.451,3.652 84.838,4.727 84.838,6.11C84.838,7.114 84.669,7.937 84.331,8.58C83.993,9.222 83.505,9.722 82.866,10.08C82.228,10.437 81.432,10.616 80.479,10.616C79.51,10.616 78.708,10.462 78.073,10.153C77.439,9.845 76.924,9.356 76.529,8.688C76.135,8.02 75.938,7.184 75.938,6.18ZM78.592,6.192C78.592,7.059 78.753,7.682 79.075,8.061C79.398,8.44 79.836,8.63 80.391,8.63C80.961,8.63 81.402,8.444 81.715,8.073C82.027,7.702 82.184,7.036 82.184,6.075C82.184,5.266 82.021,4.676 81.694,4.303C81.368,3.93 80.926,3.743 80.367,3.743C79.832,3.743 79.402,3.932 79.078,4.311C78.754,4.69 78.592,5.317 78.592,6.192Z" style="fill:rgb(21,21,21);"/>
    </g>
</svg>
